<?xml version="1.0" encoding="utf-8"?>
<!-- Generator: Adobe Illustrator 27.6.1, SVG Export Plug-In . SVG Version: 6.00 Build 0)  -->
<svg version="1.1" id="Layer_1" xmlns="http://www.w3.org/2000/svg" xmlns:xlink="http://www.w3.org/1999/xlink" x="0px" y="0px"
	 viewBox="0 0 53.7 51.3" style="enable-background:new 0 0 53.7 51.3;" xml:space="preserve">
<path d="M34.8,23.8c1,0.6,2,1.2,3.2,1.7c1.5,0.7,3.1,1.5,4.5,2.5c0.7,0.5,1.6,1,2,1.7c0.8,1.4,1.4,2.9,1.4,4.7
	c0,1.4-0.1,2.7-0.9,3.9c-0.7,1-1.4,1.8-2.4,2.5c-0.8,0.5-1.6,0.8-2.6,0.9c-1.3,0.2-2.7,0.2-4,0c-0.9,0-1.7-0.4-2.5-0.5
	c-0.3,0-0.4,0-0.6,0.3c-0.5,1.2-1.1,2.4-1.8,3.4c-1.8,2.4-4.2,4.1-7.1,5.1c-1.2,0.3-2.4,0.7-3.7,0.7c-1.5,0.2-3.1-0.2-4.7-0.5
	c-2.9-0.7-5.7-1.9-7.9-4c-0.5-0.4-1-1-1.5-1.5c-1.2-1-1.8-2.3-2.5-3.5c-0.6-1-1-2.1-1.3-3.2C2.2,37,2,36.1,1.8,35.1
	c-0.1-0.6,0-1.3,0-2c0-0.9,0.1-1.9,0.2-2.8c0.2-1.3,0.6-2.6,1.3-3.8c1.3-2.2,3.1-4,5-5.5c0.3-0.2,1-0.3,1-0.6c0-0.4-0.3-0.8-0.4-1.2
	c0-0.1-0.1-0.2-0.1-0.2c-0.9-1.6-1.3-3.1-1.3-5c-0.1-1.5,0.3-3,1.2-4.3c1.2-1.6,2.8-2.8,4.9-3.1c1.7-0.2,3.3-0.1,4.9,0.7
	c1.1,0.6,1.9,1.4,2.7,2.2c1.1,1.2,2,2.5,2.8,3.9c0.6,0.9,1.3,1.6,1.9,2.4C28.7,19.5,34.9,23.5,34.8,23.8z M24.3,16.7
	c-1.2-1.2-2-2.6-2.9-4c-0.6-0.8-1.1-1.7-1.8-2.4c-0.8-1-2.1-1.5-3.5-1.8c-1-0.2-1.9-0.3-2.8,0.1c-1.5,0.5-2.4,1.5-3.1,2.8
	c-0.3,0.5-0.4,0.8-0.6,1.3c-0.4,1.1-0.2,2.2,0,3.2c0.2,1.1,0.8,1.9,1.1,3c0.2,0.5,0.6,0.7,1.1,0.5c1.6-0.7,3.3-0.9,5-0.9
	c1.4,0,2.7,0,3.9,0.8c1.5,1,2.3,2.1,1.9,3.9c-0.2,1.1-1.8,2.4-2.9,2.4c-0.3,0-0.7-0.1-1.1-0.3c-1.1-0.4-2.1-0.5-3.2-0.5
	c-0.3,0-0.4,0-0.2,0.3c0.6,1,1.3,2.1,2.1,3.1c1.4,1.4,2.7,2.7,4.2,3.9c1.4,1,2.7,2.1,4.4,2.8c0.6,0.2,1,0.5,1.6,0.6
	c-0.1-1.4-0.7-2.6-1.2-3.9c-0.2-0.5-0.1-1.2,0.2-1.7c0.7-1.1,1.6-2,2.9-2c1.2-0.1,2,0.7,2.7,1.6c0.9,1.4,1.2,2.8,1.4,4.4
	c0.3,1.6,0.2,3.1-0.1,4.6c0,0.3,0,0.5,0.4,0.7c1.8,0.7,3.6,1.1,5.5,0.6c1.8-0.4,3-1.3,4-2.9c0.8-1.4,0.6-2.8,0.2-4.3
	c-0.6-1.7-1.8-2.9-3.3-3.9c-1.5-0.8-3.1-1.5-4.7-2.5c-0.7-0.4-1.5-0.8-2.2-1.3c-0.4-0.2-3.9-2.5-4.2-2.9
	C29.2,22,27.2,20.8,24.3,16.7z M7.4,32.1c-0.2,1.6-0.2,3.1,0.5,4.5c0.5,1,0.9,2.1,1.6,2.9c1.5,1.9,3.4,3.5,5.7,4.3
	c1.4,0.5,2.9,0.9,4.4,0.8c1.4,0,2.7-0.4,4-1.1c1.8-0.9,2.8-2.4,3.6-4.1c0-0.1,0.1-0.2,0.1-0.3c0.5-0.8,0.4-0.8-0.4-1.4
	c-2-1.2-4.1-2.3-5.9-3.8c-1.6-1.4-3-2.8-4.6-4.2c-0.4-0.4-0.7-1-1.2-1.5c-0.8-0.8-1.4-1.7-2.1-2.6c-0.2-0.3-0.7-0.3-1-0.1
	c-1,0.6-1.9,1.2-2.7,2.1C8.4,29.1,7.7,30.5,7.4,32.1z M7.3,39.4c-0.9-1.6-1.6-3.2-1.6-5c0-1.4,0.1-2.8,0.6-4.2c0.6-2,2-3.6,3.6-5
	c1.3-1.1,2.8-1.5,4.4-1.9c1.9-0.4,3.5,0.1,5.3,0.5c0.6,0.1,1,0.1,1.4-0.6c0.3-0.5,0.3-1.3,0-1.6c-0.3-0.4-0.7-0.5-1.2-0.7
	c-1.7-0.4-3.3-0.2-4.9-0.1c-0.8,0.1-1.7,0.2-2.4,0.5c-2.4,0.9-4.4,2.2-5.9,4.2C5.2,27,4.5,28.6,4,30.3c-0.1,0.8-0.3,1.7-0.2,2.5
	c0.1,0.8,0.1,1.5,0.1,2.3c0.1,1.4,0.6,2.7,1.1,4c0.4,1.1,1,2.2,1.7,3.1c1,1.4,2.3,2.5,3.7,3.5c1.3,0.9,2.7,1.5,4.1,2
	c1,0.4,1.9,0.6,2.9,0.8c1.5,0.1,3,0.3,4.6-0.1c1.4-0.3,2.6-0.8,3.7-1.4c2.2-1.4,4.1-3,5.1-5.5c0.3-0.7,0.7-1.4,1-2.2
	c0.5-1.8,0.6-3.7,0.2-5.5c-0.2-1.1-0.6-2.1-1-3.1c-0.3-0.8-0.7-1-1.4-0.9c-0.6,0.1-1.3,0.7-1.3,1.3c0,0.6,0.3,1.3,0.6,1.8
	c0.3,0.7,0.5,1.2,0.6,1.9c0.1,0.6,0.1,1.2,0.1,1.9c0.1,1.5-0.4,3-1.1,4.3c-0.9,1.6-2,3-3.6,4c-1.2,0.7-2.4,1.2-3.8,1.4
	c-1.7,0.2-3.2,0.2-4.7-0.1c-1.7-0.4-3.3-0.9-4.7-1.9c-0.5-0.5-1.1-0.9-1.5-1.3C8.9,42.1,7.9,40.7,7.3,39.4z"/>
<path d="M24.4,11.2c0.8,1.2,1.6,2.4,2.4,3.5c0.7,0.9,1.4,1.9,2,2.9c0.2,0.4,0.7,0.6,1.2,0.5c2.4-0.3,3.5-0.3,5.8-0.5l0,0
	c0.3,1,0.4,2,0.7,3c0.2,0.9,0.3,1.6,0.5,2.5c0.1,0.5,0.4,0.9,0.9,1.1c1.6,0.5,3.1,1,4.7,1.4c1,0.2,1.8,0.5,2.6,0.9
	c1,0.3,1.8,0.3,2.5-0.4c1.6-1.5,3.2-3,4.9-4.5c0.5-0.6,0.7-1.3,0.6-2.2c-0.5-2.5-1-5-1.7-7.6c-0.1-0.5-0.5-0.8-1-1
	c-1.2-0.4-2.4-0.7-3.6-1.1c-1.3-0.4-2.5-0.7-3.7-1.2c-0.2-0.1-0.5-0.2-0.7-0.2c0-0.2-0.1-0.4-0.2-0.5c-0.8-1.1-1.4-2.1-2.1-3.1
	c-0.8-1.2-1.4-2.2-2.2-3.3C37.6,1.1,37,0.9,36.4,1c-1.2,0.1-2.6,0.3-3.9,0.4c-1.1,0-2.3,0-3.5,0.1c-1,0-1.8,0.5-2.1,1.4
	c-0.6,0.9-1,1.9-1.5,2.8l0,0c-0.5,0.9-0.9,1.8-1.4,2.7C23.5,9.3,23.7,10.2,24.4,11.2z M40.5,8.8c-2.1-0.2-4,0.2-5.9,0.2
	c-0.9-0.1-1.5-0.3-1.8-1.1c-0.8-1.4-2-2.7-2.7-4.1c-0.1-0.2-0.6-0.2-0.3-0.5c0.2-0.3,0.5-0.3,0.8-0.2C31.6,3.2,32.7,3,33.9,3
	c1.5,0,3.3-0.6,4.2,1.6l0,0C38.9,6,39.9,7.2,40.5,8.8z M50.5,19.3c-0.9-0.5-1.9-0.6-2.9-1c-1-0.4-1.9-0.6-2.6-0.9
	c-0.4-0.3-0.5-0.7-0.6-1c-0.4-1.7-0.8-3.5-1.2-5c0-0.1,0-0.3,0-0.4c0-0.1,0.3-0.1,0.4-0.1c1.4,0.5,2.7,1.1,4.1,1.4
	c1.4,0.4,2.3,1.1,2.4,2.6c0.2,1.4,0.6,2.7,0.9,4c0.1,0.2,0.1,0.4-0.1,0.6C50.9,19.5,50.8,19.3,50.5,19.3z M40,22.3
	c0.6-0.5,1.2-1,1.7-1.6l0,0c0.5-0.4,0.9-0.8,1.4-1.3c0.5-0.7,1.2-0.6,1.9-0.4c1.7,0.6,3.3,1,5,1.6c0.3,0.2,0.7,0.2,0.2,0.6
	c-1.2,1-2.5,2.3-3.9,3.4c-0.3,0.3-0.6,0.2-0.9,0.1c-1.6-0.9-3.5-1.3-5.3-1.8C39.7,22.8,39.9,22.7,40,22.3z M37.8,14.5
	c0.8-0.9,1.9-1.8,2.8-2.6c0.3-0.4,0.8-1.1,1.1-1c0.5,0.2,0.2,1,0.4,1.4c0.6,1.3,0.6,2.9,1,4.3c0.1,0.4,0.1,0.8-0.4,1.2
	c-0.5,0.4-1.1,0.9-1.5,1.4l0,0c-0.6,0.6-1.2,1.2-1.9,1.8c-0.3,0.3-0.6,0.4-0.7-0.2c-0.4-1.7-0.7-3.6-1.2-5.3
	C37.2,15.3,37.3,15,37.8,14.5z M31.1,16.1c0.7-1.7,1.6-3.3,2.5-4.9c0.2-0.3,0.5-0.4,0.7-0.4c1.7-0.1,3.5-0.4,5.3-0.4
	c-0.3,0.3-0.6,0.5-0.9,0.8l0,0C38,12,37,12.9,36.1,13.7c-0.8,0.6-0.9,1.5-0.8,2.2C33.9,15.9,32.6,16.1,31.1,16.1z M26,9.3
	c0.5-1.4,1.5-2.8,2.2-4.3c0.2-0.4,0.4-0.4,0.7,0.2c0.6,1.3,1.3,2.4,2.1,3.3c1,0.9,1.2,1.9,0.6,2.8c-0.3,0.4-0.5,0.9-0.7,1.3l0,0
	c-0.2,0.7-0.5,1.2-0.8,1.8c-0.3,0.6-0.6,0.5-1,0c-0.9-1.6-1.7-3.1-3-4.5C25.8,9.7,26,9.5,26,9.3z"/>
<path d="M37.2,33.4c0.6-0.7,1.9-0.8,2.5-0.2c0.6,0.6,0.9,1.6,0.1,2.3c-0.7,0.7-1.5,0.9-2.3,0.2C36.8,35.2,36.7,34.1,37.2,33.4z"/>
<path d="M16.1,12.6c0.6,0.6,0.6,1.7,0,2.3c-0.7,0.7-1.6,1-2.4,0.2c-0.8-0.7-0.6-1.8-0.2-2.4C14.3,12.1,15.4,12,16.1,12.6z"/>
</svg>
