<?xml version="1.0" encoding="utf-8"?>
<!-- Generator: Adobe Illustrator 27.6.1, SVG Export Plug-In . SVG Version: 6.00 Build 0)  -->
<svg version="1.1" id="Layer_1" xmlns="http://www.w3.org/2000/svg" xmlns:xlink="http://www.w3.org/1999/xlink" x="0px" y="0px"
	 viewBox="0 0 53.7 51.3" style="enable-background:new 0 0 53.7 51.3;" xml:space="preserve">
<path d="M27.6,15.1c0.8-0.7,1.6-1.3,2.3-2.1c1-1.2,2.1-2.4,3.4-3.4c0.9-0.7,1.8-1.4,3-1.8c1.7-0.5,3.3-0.4,4.9,0.1
	c2.1,0.6,3.5,2,4.4,3.8c0.7,1.4,0.8,2.9,0.5,4.4c-0.3,1.8-1,3.3-2.1,4.7c0,0-0.1,0.1-0.1,0.2c-0.2,0.4-0.5,0.7-0.6,1.1
	c0,0.4,0.6,0.5,0.9,0.8c1.7,1.8,3.2,3.8,4.1,6.2c0.5,1.3,0.7,2.7,0.7,4c0,0.9-0.1,1.9-0.2,2.8c-0.1,0.7-0.1,1.4-0.3,2
	c-0.3,0.9-0.7,1.8-1,2.7c-0.5,1.1-1.1,2.1-1.8,3c-0.9,1.1-1.7,2.3-3,3.1c-0.6,0.4-1.1,0.9-1.7,1.2c-2.5,1.7-5.4,2.5-8.4,2.7
	c-1.6,0.1-3.2,0.2-4.7-0.2c-1.2-0.2-2.4-0.8-3.5-1.3c-2.7-1.4-4.8-3.4-6.2-6.1c-0.6-1.1-1-2.3-1.3-3.6c-0.1-0.3-0.2-0.4-0.5-0.4
	c-0.8,0-1.6,0.2-2.5,0.1c-1.4,0-2.7-0.2-4-0.6c-0.9-0.3-1.7-0.7-2.4-1.3c-0.9-0.8-1.5-1.7-2-2.8c-0.6-1.3-0.5-2.6-0.3-4
	c0.3-1.7,1.1-3.1,2.1-4.4c0.5-0.7,1.4-1,2.2-1.4c1.5-0.8,3.2-1.3,4.8-1.8c1.2-0.3,2.3-0.8,3.4-1.2C17.6,21.3,24.4,18.3,27.6,15.1z
	 M23.5,20.7c-0.4,0.3-4.2,2.1-4.6,2.2c-0.8,0.3-1.6,0.6-2.4,0.9c-1.7,0.7-3.4,1.1-5,1.7c-1.7,0.7-3,1.7-3.9,3.3
	c-0.7,1.4-1.1,2.8-0.5,4.3c0.7,1.7,1.8,2.8,3.5,3.5c1.8,0.8,3.6,0.7,5.5,0.3c0.4-0.1,0.5-0.3,0.5-0.6c-0.1-1.6,0.1-3.1,0.6-4.6
	c0.5-1.5,1-2.9,2.1-4.1c0.8-0.8,1.7-1.5,2.9-1.2c1.3,0.2,2.1,1.2,2.6,2.4c0.2,0.5,0.2,1.2-0.1,1.7c-0.7,1.2-1.5,2.3-1.8,3.7
	c0.6,0,1.1-0.2,1.7-0.3c1.8-0.4,3.3-1.3,4.8-2.1c1.7-1,3.2-2,4.8-3.2c1-0.8,1.8-1.8,2.6-2.7c0.2-0.2,0.1-0.3-0.2-0.3
	c-1-0.2-2.1-0.2-3.2,0c-0.4,0.1-0.8,0.1-1.1,0.1c-1.1-0.1-2.5-1.7-2.5-2.8c-0.1-1.9,0.9-2.8,2.5-3.6c1.3-0.6,2.6-0.4,4-0.2
	c1.7,0.3,3.3,0.8,4.8,1.7c0.5,0.3,0.9,0.2,1.2-0.3c0.5-1,1.2-1.8,1.6-2.8c0.4-1,0.7-2.1,0.5-3.2c-0.1-0.5-0.2-0.9-0.4-1.4
	c-0.5-1.4-1.2-2.5-2.6-3.2c-0.9-0.5-1.8-0.5-2.8-0.5c-1.4,0-2.7,0.3-3.7,1.2c-0.8,0.6-1.5,1.4-2.2,2.1c-1.1,1.2-2.1,2.5-3.5,3.5
	C25.7,19.8,23.5,20.7,23.5,20.7z M42.1,29.5c-0.6-1-1.4-1.7-2.3-2.5c-0.3-0.3-0.7-0.4-1-0.1c-0.8,0.7-1.6,1.5-2.5,2.2
	c-0.5,0.4-0.9,1-1.4,1.3c-1.8,1.1-3.4,2.3-5.2,3.4c-2,1.2-4.2,1.9-6.4,2.8c-0.9,0.4-1,0.4-0.6,1.3c0,0.1,0.1,0.2,0.1,0.3
	c0.5,1.8,1.3,3.4,2.9,4.6c1.2,0.9,2.4,1.5,3.8,1.7c1.5,0.3,3,0.2,4.5-0.1c2.4-0.5,4.5-1.8,6.3-3.4c0.8-0.7,1.4-1.7,2-2.6
	c0.9-1.3,1.2-2.8,1.2-4.4C43.4,32.4,42.9,30.9,42.1,29.5z M38.9,44.5c-0.5,0.3-1.1,0.6-1.7,1c-1.5,0.8-3.2,1.1-4.9,1.2
	c-1.6,0.1-3.1-0.1-4.7-0.6c-1.3-0.4-2.4-1.1-3.5-2c-1.4-1.2-2.3-2.8-2.9-4.5c-0.5-1.4-0.7-2.9-0.4-4.4c0.1-0.7,0.2-1.3,0.4-1.9
	c0.2-0.7,0.5-1.2,0.9-1.8c0.4-0.5,0.8-1.1,0.9-1.7c0.1-0.6-0.5-1.3-1.1-1.5c-0.6-0.2-1.1,0-1.5,0.7c-0.6,0.9-1.1,1.9-1.5,2.9
	c-0.7,1.8-0.9,3.6-0.7,5.5c0.1,0.8,0.4,1.6,0.6,2.3c0.6,2.6,2.2,4.5,4.2,6.2c1,0.8,2.1,1.5,3.4,2c1.5,0.6,3,0.7,4.5,0.8
	c1,0,2-0.1,3-0.3c1.5-0.2,3-0.6,4.4-1.3c1.5-0.8,3-1.7,4.2-2.9c0.9-0.8,1.6-1.8,2.2-2.8c0.7-1.2,1.4-2.4,1.7-3.8
	c0.2-0.8,0.3-1.5,0.5-2.3c0.2-0.8,0.2-1.7,0.2-2.5c-0.2-1.8-0.7-3.5-1.6-5c-1.2-2.2-3-3.8-5.2-5.1c-0.7-0.4-1.5-0.7-2.3-0.9
	c-1.6-0.4-3.2-0.8-4.9-0.7c-0.5,0.1-0.9,0.2-1.3,0.5c-0.4,0.3-0.5,1.1-0.3,1.6c0.3,0.7,0.7,0.8,1.3,0.8c1.8-0.2,3.5-0.4,5.3,0.3
	c1.5,0.7,2.9,1.3,4,2.6c1.4,1.6,2.5,3.4,2.8,5.5c0.2,1.4,0.1,2.8-0.1,4.2c-0.3,1.8-1.3,3.3-2.4,4.7C41.6,42.5,40.4,43.7,38.9,44.5z"
	/>
<path d="M31.1,8c-0.3-0.8-0.6-1.5-0.9-2.3l0,0c-0.3-0.8-0.6-1.6-1-2.4C29,2.5,28.4,2.1,27.6,2c-0.9-0.1-1.9-0.2-2.8-0.3
	c-1-0.2-2.1-0.4-3.1-0.6c-0.5-0.1-1,0-1.3,0.4c-0.7,0.8-1.3,1.6-2,2.5c-0.6,0.8-1.2,1.6-1.9,2.4c-0.1,0.1-0.2,0.2-0.2,0.4
	c-0.2,0-0.4,0-0.6,0.1c-1,0.3-2,0.5-3.1,0.7c-1,0.2-2,0.4-3,0.6C9.2,8.3,8.8,8.5,8.7,8.9c-0.7,2-1.3,4-1.9,6
	c-0.2,0.7-0.1,1.3,0.3,1.8c1.2,1.3,2.4,2.7,3.6,4c0.5,0.6,1.2,0.7,2,0.5c0.7-0.2,1.4-0.4,2.2-0.5c1.3-0.2,2.6-0.5,3.9-0.8
	c0.4-0.1,0.7-0.4,0.8-0.8c0.2-0.7,0.4-1.3,0.6-2c0.3-0.8,0.5-1.6,0.8-2.4c0,0,0,0,0,0c1.9,0.3,2.8,0.4,4.7,0.8c0.4,0.1,0.8,0,1-0.3
	c0.5-0.8,1.2-1.5,1.8-2.2c0.7-0.9,1.5-1.8,2.2-2.7C31.3,9.5,31.5,8.8,31.1,8z M20.5,4.1C20.5,4.1,20.5,4.1,20.5,4.1
	c0.7-1.4,1.9-0.9,2.9-0.8c0.8,0.1,1.5,0.3,2.3,0.3c0.2,0,0.4,0,0.5,0.2C26.4,4,26.1,4,26,4.1c-0.6,0.9-1.5,1.7-2.1,2.6
	c-0.3,0.5-0.7,0.6-1.3,0.6c-1.3-0.1-2.6-0.5-4-0.5C19.1,5.8,19.8,5,20.5,4.1z M8.9,14.5c-0.1-0.1-0.1-0.3,0-0.4
	c0.3-0.9,0.7-1.8,0.9-2.8c0.2-1.1,0.9-1.5,1.9-1.7c1-0.1,2-0.4,3-0.7c0.1,0,0.3,0,0.3,0.1c0,0.1,0,0.2,0,0.3
	c-0.4,1.1-0.8,2.3-1.2,3.5c-0.1,0.2-0.2,0.5-0.5,0.7c-0.5,0.2-1.2,0.3-1.9,0.5c-0.7,0.2-1.4,0.2-2.1,0.5C9.1,14.5,9,14.6,8.9,14.5z
	 M16.4,18.4c-1.3,0.2-2.6,0.4-3.8,0.9c-0.2,0.1-0.4,0.1-0.6-0.1c-0.9-0.8-1.7-1.8-2.5-2.6c-0.3-0.3,0-0.3,0.2-0.4
	c1.2-0.3,2.4-0.5,3.6-0.8c0.5-0.1,1-0.1,1.3,0.4c0.3,0.4,0.6,0.7,0.9,1c0,0,0,0,0,0c0.3,0.4,0.7,0.8,1.1,1.2
	C16.7,18.3,16.8,18.4,16.4,18.4z M19.5,12.9c-0.5,1.2-0.8,2.5-1.2,3.7c-0.1,0.4-0.3,0.3-0.5,0.1c-0.4-0.5-0.8-0.9-1.2-1.4
	c0,0,0,0,0,0c-0.3-0.4-0.7-0.8-1-1.1c-0.3-0.3-0.3-0.6-0.2-0.9c0.4-1,0.5-2.1,1-3c0.2-0.3,0-0.9,0.4-1c0.2,0,0.5,0.5,0.7,0.8
	c0.6,0.6,1.3,1.3,1.8,2C19.6,12.5,19.7,12.7,19.5,12.9z M21.5,12.8c0.1-0.5,0.1-1.1-0.4-1.6c-0.6-0.6-1.2-1.3-1.7-1.9l0,0
	c-0.2-0.2-0.4-0.4-0.6-0.6c1.3,0.1,2.5,0.4,3.7,0.6c0.2,0,0.4,0.1,0.5,0.3c0.5,1.2,1,2.4,1.4,3.6C23.4,13.1,22.5,12.9,21.5,12.8z
	 M29.2,9.1c-1,0.9-1.7,2-2.5,3.1c-0.3,0.3-0.5,0.4-0.7-0.1c-0.2-0.5-0.4-0.9-0.5-1.4c0,0,0,0,0,0c-0.1-0.3-0.2-0.7-0.4-1
	c-0.4-0.7-0.2-1.4,0.6-2c0.7-0.6,1.3-1.4,1.8-2.3C27.7,5,27.9,5,28,5.3c0.4,1.1,1,2.2,1.3,3.3C29.3,8.8,29.4,8.9,29.2,9.1z"/>
<path d="M13.1,33c-0.9,0.5-1.6,0.2-2.2-0.6c-0.6-0.9-0.2-1.8,0.5-2.3c0.7-0.5,1.9-0.2,2.4,0.6C14.2,31.4,13.9,32.5,13.1,33z
	 M12.8,31.2c-0.2-0.4-0.5-0.4-0.9-0.2c-0.2,0.1-0.3,0.6-0.1,0.9c0.1,0.2,0.6,0.3,0.9,0.2C12.9,32,13,31.5,12.8,31.2z"/>
<path d="M40.4,14c0.3,0.6,0.3,1.7-0.6,2.3c-0.9,0.6-1.7,0.2-2.3-0.6c-0.5-0.7-0.3-1.8,0.4-2.3C38.7,12.9,39.8,13.2,40.4,14z
	 M39.5,14.6c-0.2-0.4-0.6-0.5-0.9-0.2c-0.3,0.2-0.4,0.6-0.2,0.9c0.2,0.2,0.7,0.3,0.9,0.2C39.5,15.3,39.6,14.8,39.5,14.6z"/>
</svg>
